<svg width="105" height="36" viewBox="0 0 105 36" fill="none" xmlns="http://www.w3.org/2000/svg">
    <g clip-path="url(#clip0_968_85704)">
        <path
            d="M13.9715 19.5863C17.2736 19.4915 22.9083 15.5647 20.4797 10.4239C18.8863 11.3771 17.2928 11.638 15.757 11.2206C13.6212 10.6373 10.6742 7.87245 11.7541 4.27293C12.3541 2.27161 13.4004 1.27095 15.1186 0.625977C16.1697 0.232353 17.5712 0.194413 18.3823 0.256065C18.8383 0.294005 19.5294 0.403082 19.9518 0.53587C24.2426 1.89221 26.9927 6.35961 26.532 11.7565C26.0328 17.6277 21.4204 21.2652 16.1217 21.1561C15.4738 21.1419 14.749 21.0755 14.0723 20.9616C13.6452 20.8905 11.3318 20.1696 11.5237 19.5626C12.0421 19.6337 13.3572 19.6006 13.9715 19.5816V19.5863Z"
            fill="#C4E9FB" />
        <path
            d="M0.710335 36C0.235179 36 0 35.8388 0 35.5115C0 35.2222 0.475157 35.0752 1.42067 35.0231C2.52937 34.9661 2.77415 34.8144 3.02852 34.5061C3.2829 34.1979 3.41249 33.1593 3.41249 31.3856V4.44368C3.41249 2.67 3.3213 1.67883 3.13411 1.46068C2.91333 1.10025 2.72135 0.825188 1.68945 0.81096C0.98871 0.801475 0.638342 0.649717 0.638342 0.426821C0.638342 0.142274 0.859122 0 1.30068 0H8.88399V31.0252C8.88399 33.0786 8.97518 34.1979 9.15756 34.3781C9.56073 34.7764 9.57992 35.0088 11.5477 35.08C11.9509 35.08 12.1477 35.2317 12.1477 35.54C12.1477 35.8482 11.9269 36 11.4902 36C11.4902 36 11.0774 36 10.943 36C10.3239 36.0047 9.65672 36 4.91475 36H0.710335Z"
            fill="#C4E9FB" />
        <path
            d="M38.7209 17.8742V3.68481H42.2534C44.1349 3.68481 45.5267 4.0405 46.429 4.75187C47.3266 5.46324 47.7777 6.56349 47.7777 8.04787C47.7777 9.42319 47.3266 10.5045 46.4194 11.287C45.5123 12.0695 44.2596 12.4584 42.6566 12.4584H41.8119V17.879H38.7209V17.8742ZM41.8119 10.0919H42.2534C43.0885 10.0919 43.6981 9.92115 44.0773 9.57969C44.4564 9.23823 44.6484 8.68811 44.6484 7.92931C44.6484 7.23217 44.4564 6.72473 44.0773 6.40224C43.6981 6.0845 43.0885 5.92325 42.2534 5.92325H41.8119V10.0919Z"
            fill="#C4E9FB" />
        <path
            d="M52.1405 8.36548V13.3688C52.1405 14.2082 52.3037 14.8105 52.6349 15.1709C52.966 15.5313 53.5036 15.7163 54.2475 15.7163C54.9915 15.7163 55.5242 15.5313 55.8554 15.1662C56.1913 14.801 56.3545 14.2034 56.3545 13.3688V8.36548H59.1527V13.3688C59.1527 15.0429 58.7591 16.2759 57.9672 17.0679C57.1753 17.8599 55.9514 18.2535 54.2859 18.2535C52.6205 18.2535 51.3486 17.8599 50.5519 17.0726C49.7551 16.2854 49.3616 15.0523 49.3616 13.3688V8.36548H52.1357H52.1405Z"
            fill="#C4E9FB" />
        <path
            d="M61.5669 17.8742V2.8501H64.2451V8.27073C64.2451 8.5695 64.2355 8.86353 64.2115 9.15757C64.1875 9.4516 64.1587 9.73615 64.1203 10.016C64.5762 9.33304 65.0754 8.83034 65.6129 8.51733C66.1505 8.20433 66.7648 8.04783 67.456 8.04783C68.8286 8.04783 69.8989 8.49362 70.6669 9.38995C71.4348 10.2863 71.8188 11.5335 71.8188 13.1365C71.8188 14.7394 71.43 15.9203 70.6525 16.8546C69.8749 17.7888 68.8526 18.2536 67.5807 18.2536C66.8176 18.2536 66.1649 18.1113 65.6321 17.8315C65.0994 17.5517 64.6434 17.1107 64.2643 16.5084L64.2834 17.8742H61.5669ZM64.1203 13.1033C64.1203 13.9617 64.3362 14.6304 64.7634 15.1094C65.1906 15.5883 65.7905 15.8255 66.5536 15.8255C67.3168 15.8255 67.9167 15.5883 68.3439 15.1094C68.771 14.6304 68.987 13.9617 68.987 13.1033C68.987 12.2449 68.771 11.5667 68.3343 11.0735C67.8975 10.5803 67.2976 10.3337 66.5344 10.3337C65.7713 10.3337 65.2098 10.5803 64.773 11.0783C64.3362 11.5762 64.1203 12.2496 64.1203 13.1033Z"
            fill="#C4E9FB" />
        <path d="M73.8586 17.8742V2.8501H76.6424V17.8742H73.8586Z" fill="#C4E9FB" />
        <path
            d="M78.97 4.45779C78.97 4.01674 79.1284 3.64209 79.4499 3.32434C79.7715 3.0066 80.1507 2.8501 80.597 2.8501C81.0434 2.8501 81.4369 3.0066 81.7585 3.3196C82.0801 3.6326 82.2433 4.012 82.2433 4.45779C82.2433 4.90358 82.0801 5.28298 81.7585 5.60072C81.4369 5.91847 81.0482 6.07497 80.597 6.07497C80.1459 6.07497 79.7715 5.91373 79.4499 5.59124C79.1284 5.26875 78.97 4.88935 78.97 4.45779ZM79.2147 17.8742V8.36558H81.9985V17.8742H79.2147Z"
            fill="#C4E9FB" />
        <path
            d="M83.6448 16.2097L85.795 15.1142C85.867 15.4841 86.059 15.7734 86.3757 15.9868C86.6925 16.2002 87.0765 16.3046 87.542 16.3046C88.0076 16.3046 88.3579 16.2239 88.6219 16.058C88.8811 15.892 89.0155 15.6643 89.0155 15.375C89.0155 14.915 88.5499 14.5309 87.6236 14.2226C87.3356 14.1278 87.1053 14.0472 86.9373 13.9808C85.8046 13.5587 85.0223 13.1366 84.5855 12.7098C84.1487 12.283 83.9328 11.7566 83.9328 11.1305C83.9328 10.201 84.3023 9.44697 85.0414 8.87314C85.7806 8.2993 86.7549 8.01001 87.9644 8.01001C88.8283 8.01001 89.577 8.18074 90.2058 8.5222C90.8345 8.86365 91.2953 9.34738 91.5833 9.97813L89.5338 10.9883C89.4234 10.6326 89.2315 10.3623 88.9531 10.1773C88.6795 9.99236 88.3339 9.90225 87.9212 9.90225C87.5084 9.90225 87.1773 9.98761 86.9229 10.1536C86.6685 10.3196 86.5389 10.5425 86.5389 10.8128C86.5389 11.287 87.1725 11.7234 88.4395 12.1312C88.5883 12.1786 88.7035 12.2118 88.7851 12.2355C89.8362 12.577 90.5849 12.9754 91.0313 13.4306C91.4777 13.8859 91.6984 14.4645 91.6984 15.1711C91.6984 16.1149 91.3289 16.8642 90.5897 17.419C89.8506 17.9739 88.8523 18.2537 87.5996 18.2537C86.6061 18.2537 85.7566 18.0688 85.0558 17.7036C84.3503 17.3384 83.8848 16.8405 83.6496 16.205L83.6448 16.2097Z"
            fill="#C4E9FB" />
        <path
            d="M93.5704 17.8742V2.8501H96.3061V8.19011C96.3061 8.48888 96.2965 8.78291 96.2773 9.07694C96.2581 9.37098 96.2293 9.65553 96.1909 9.93533C96.7669 9.27139 97.3428 8.78765 97.9236 8.48888C98.5043 8.19011 99.1475 8.04309 99.8626 8.04309C100.578 8.04309 101.24 8.17114 101.754 8.42249C102.267 8.67384 102.666 9.05323 102.944 9.55593C103.088 9.82151 103.189 10.1203 103.251 10.4523C103.314 10.7842 103.342 11.3059 103.342 12.0173V17.8742H100.544V13.1744C100.544 12.003 100.405 11.2348 100.131 10.8554C99.8578 10.476 99.3875 10.291 98.7203 10.291C98.3364 10.291 97.9812 10.3716 97.6548 10.5281C97.3332 10.6846 97.0597 10.9123 96.8437 11.2016C96.6757 11.4292 96.5509 11.6853 96.4741 11.9793C96.3973 12.2686 96.3589 12.7144 96.3589 13.3072V17.8742H93.5608H93.5704Z"
            fill="#C4E9FB" />
        <path
            d="M38.7209 34.2262V20.032H42.2534C44.1349 20.032 45.5267 20.3877 46.429 21.099C47.3266 21.8104 47.7777 22.9107 47.7777 24.395C47.7777 25.7704 47.3266 26.8516 46.4194 27.6341C45.5123 28.4166 44.2596 28.8055 42.6566 28.8055H41.8119V34.2262H38.7209ZM41.8119 26.4438H42.2534C43.0885 26.4438 43.6981 26.2731 44.0773 25.9316C44.4564 25.5901 44.6484 25.04 44.6484 24.2812C44.6484 23.5841 44.4564 23.0766 44.0773 22.7542C43.6981 22.4364 43.0885 22.2752 42.2534 22.2752H41.8119V26.4438Z"
            fill="#C4E9FB" />
        <path
            d="M59.2199 29.5027C59.2199 30.9634 58.716 32.1775 57.7033 33.1497C56.6906 34.1172 55.4139 34.6056 53.8636 34.6056C52.3134 34.6056 51.0127 34.1219 50 33.1497C48.9873 32.1822 48.4785 30.9634 48.4785 29.5027C48.4785 28.0421 48.9873 26.8327 50.0096 25.8558C51.0319 24.8789 52.3134 24.3904 53.8636 24.3904C55.4139 24.3904 56.7002 24.8741 57.7081 25.8368C58.716 26.7995 59.2199 28.0231 59.2199 29.5027ZM56.3738 29.4838C56.3738 28.706 56.1434 28.0895 55.6875 27.6295C55.2315 27.1695 54.6172 26.9371 53.8444 26.9371C53.0717 26.9371 52.4622 27.1647 52.011 27.6247C51.5598 28.0848 51.3343 28.706 51.3343 29.4838C51.3343 30.2615 51.5598 30.8781 52.011 31.3428C52.4622 31.8076 53.0717 32.04 53.8444 32.04C54.6172 32.04 55.2219 31.8076 55.6827 31.3428C56.1434 30.8781 56.3738 30.2568 56.3738 29.4838Z"
            fill="#C4E9FB" />
        <path
            d="M60.8518 21.7583C60.8518 21.3173 61.0102 20.9426 61.3318 20.6249C61.6533 20.3071 62.0325 20.1506 62.4789 20.1506C62.9252 20.1506 63.3188 20.3071 63.6404 20.6201C63.9619 20.9331 64.1251 21.3125 64.1251 21.7583C64.1251 22.2041 63.9619 22.5835 63.6404 22.9013C63.3188 23.219 62.93 23.3755 62.4789 23.3755C62.0277 23.3755 61.6533 23.2143 61.3318 22.8918C61.0102 22.5693 60.8518 22.1899 60.8518 21.7583ZM61.0966 34.2262V24.7176H63.8803V34.2262H61.0966Z"
            fill="#C4E9FB" />
        <path
            d="M66.4048 34.2263V24.7176H69.1405V26.2115C69.6445 25.5903 70.1868 25.135 70.7628 24.841C71.3435 24.5469 71.9819 24.3999 72.6922 24.3999C73.4361 24.3999 74.0649 24.5232 74.5736 24.7746C75.0824 25.0212 75.4808 25.4053 75.7735 25.9127C75.9175 26.1783 76.0183 26.4771 76.0807 26.8091C76.1431 27.141 76.1719 27.6627 76.1719 28.3741V34.231H73.3737V29.5312C73.3737 28.3599 73.2346 27.5916 72.961 27.2122C72.6874 26.8328 72.217 26.6478 71.5499 26.6478C71.1659 26.6478 70.8108 26.7284 70.4844 26.8849C70.1628 27.0415 69.8893 27.2691 69.6733 27.5584C69.5053 27.786 69.3805 28.0421 69.3037 28.3361C69.2269 28.6254 69.1885 29.0712 69.1885 29.664V34.231H66.3904L66.4048 34.2263Z"
            fill="#C4E9FB" />
        <path
            d="M78.9125 34.2262V26.8801H77.5686V24.7176H78.9125V21.5591H81.7106V24.7176H83.0545V26.8801H81.7106V34.2262H78.9125Z"
            fill="#C4E9FB" />
        <path
            d="M84.3311 32.8603C84.3311 32.3956 84.4942 31.9972 84.8254 31.67C85.1566 31.3427 85.5549 31.1768 86.0157 31.1768C86.4765 31.1768 86.8796 31.3427 87.206 31.67C87.5372 32.0019 87.7003 32.3956 87.7003 32.8603C87.7003 33.3251 87.5372 33.7092 87.2108 34.027C86.8844 34.3447 86.4861 34.506 86.0157 34.506C85.5453 34.506 85.1566 34.3447 84.8254 34.0222C84.4942 33.6997 84.3311 33.3109 84.3311 32.8603Z"
            fill="#C4E9FB" />
    </g>
    <defs>
        <clipPath id="clip0_968_85704">
            <rect width="105" height="36" fill="white" />
        </clipPath>
    </defs>
</svg>
