<svg width="18" height="18" viewBox="0 0 18 18" fill="none" xmlns="http://www.w3.org/2000/svg">
    <path
        d="M1.79184 8.01693C6.27854 6.02106 9.27037 4.70526 10.7673 4.06953C15.0415 2.2544 15.9296 1.93909 16.5085 1.92857C16.6358 1.92639 16.9205 1.9586 17.1049 2.11138C17.2606 2.24037 17.3034 2.41463 17.3239 2.53694C17.3444 2.65924 17.37 2.93785 17.3497 3.15555C17.1181 5.64033 16.1159 11.6702 15.606 14.4532C15.3902 15.6308 14.9654 16.0257 14.5542 16.0643C13.6604 16.1483 12.9817 15.4612 12.1161 14.8819C10.7615 13.9753 9.99623 13.4109 8.68138 12.5262C7.16184 11.5038 8.14689 10.9419 9.01288 10.0235C9.23951 9.78318 13.1775 6.12603 13.2537 5.79427C13.2632 5.75277 13.2721 5.59811 13.1821 5.51644C13.0921 5.43477 12.9593 5.4627 12.8634 5.48491C12.7275 5.51639 10.5636 6.97676 6.37153 9.86599C5.7573 10.2966 5.20094 10.5065 4.70247 10.4955C4.15294 10.4833 3.09587 10.1782 2.31005 9.91741C1.34621 9.59752 0.580166 9.42839 0.646871 8.88512C0.681616 8.60214 1.06327 8.31275 1.79184 8.01693Z"
        fill="#264A5B" />
</svg>
